<svg width="401" height="217" viewBox="0 0 401 217" fill="none" xmlns="http://www.w3.org/2000/svg">
<path d="M4.736 23.2H15.936V68H4.736V23.2ZM31.168 23.2H43.84L25.664 44.192L44.8 68H31.68L12.8 44.512L31.168 23.2ZM55.1945 45.6C55.1945 48.2453 55.7065 50.592 56.7305 52.64C57.7972 54.6453 59.2692 56.224 61.1465 57.376C63.0665 58.528 65.3065 59.104 67.8665 59.104C70.3838 59.104 72.5812 58.528 74.4585 57.376C76.3785 56.224 77.8505 54.6453 78.8745 52.64C79.9412 50.592 80.4745 48.2453 80.4745 45.6C80.4745 42.9547 79.9625 40.6293 78.9385 38.624C77.9145 36.576 76.4638 34.976 74.5865 33.824C72.7092 32.672 70.4692 32.096 67.8665 32.096C65.3065 32.096 63.0665 32.672 61.1465 33.824C59.2692 34.976 57.7972 36.576 56.7305 38.624C55.7065 40.6293 55.1945 42.9547 55.1945 45.6ZM43.7385 45.6C43.7385 42.144 44.3358 38.9867 45.5305 36.128C46.7678 33.2693 48.4745 30.7947 50.6505 28.704C52.8265 26.6133 55.3865 25.0133 58.3305 23.904C61.2745 22.752 64.4532 22.176 67.8665 22.176C71.3225 22.176 74.5012 22.752 77.4025 23.904C80.3465 25.0133 82.9065 26.6133 85.0825 28.704C87.2585 30.7947 88.9438 33.2693 90.1385 36.128C91.3332 38.9867 91.9305 42.144 91.9305 45.6C91.9305 49.056 91.3332 52.2347 90.1385 55.136C88.9865 58.0373 87.3225 60.5547 85.1465 62.688C83.0132 64.8213 80.4745 66.4853 77.5305 67.68C74.5865 68.832 71.3652 69.408 67.8665 69.408C64.3252 69.408 61.0825 68.832 58.1385 67.68C55.1945 66.4853 52.6345 64.8213 50.4585 62.688C48.3252 60.5547 46.6612 58.0373 45.4665 55.136C44.3145 52.2347 43.7385 49.056 43.7385 45.6ZM129.773 23.2H140.205V70.24L109.229 42.784V68H98.861V20.96L129.773 48.416V23.2Z" fill="#00CCFF"/>
<path d="M46.31 148.17V133.87H85.25C85.6167 140.03 84.9933 145.787 83.38 151.14C81.7667 156.493 79.2733 161.223 75.9 165.33C72.5267 169.437 68.31 172.663 63.25 175.01C58.19 177.283 52.3967 178.42 45.87 178.42C39.71 178.42 34.0633 177.467 28.93 175.56C23.7967 173.58 19.36 170.793 15.62 167.2C11.88 163.533 8.94667 159.207 6.82 154.22C4.76667 149.16 3.74 143.587 3.74 137.5C3.74 131.413 4.80333 125.913 6.93 121C9.05667 116.013 12.0633 111.76 15.95 108.24C19.8367 104.72 24.3833 102.007 29.59 100.1C34.7967 98.1933 40.4433 97.24 46.53 97.24C51.9567 97.24 56.8333 98.01 61.16 99.55C65.4867 101.09 69.3 103.253 72.6 106.04C75.9733 108.753 78.87 111.907 81.29 115.5L64.79 124.08C63.03 121 60.6467 118.47 57.64 116.49C54.7067 114.437 51.0033 113.41 46.53 113.41C42.2767 113.41 38.3533 114.363 34.76 116.27C31.24 118.177 28.4167 120.927 26.29 124.52C24.2367 128.04 23.21 132.367 23.21 137.5C23.21 142.56 24.2 146.96 26.18 150.7C28.2333 154.367 30.9833 157.227 34.43 159.28C37.95 161.26 41.9833 162.25 46.53 162.25C49.3167 162.25 51.8467 161.92 54.12 161.26C56.3933 160.527 58.3367 159.537 59.95 158.29C61.5633 156.97 62.92 155.467 64.02 153.78C65.1933 152.02 66.11 150.15 66.77 148.17H46.31ZM106.5 161.15L107.82 146.96H145.99L147.2 161.15H106.5ZM126.63 127.27L115.85 152.13L116.73 156.2L107.16 176H86.1498L126.63 94.16L167.22 176H146.1L136.86 156.97L137.52 152.24L126.63 127.27ZM195.088 136.73L190.468 176H170.888L183.318 95.15L216.098 142.12L248.988 95.15L261.418 176H241.838L237.218 136.73L216.098 168.85L195.088 136.73ZM285.577 176V160.71H324.407V176H285.577ZM285.577 114.29V99H324.407V114.29H285.577ZM285.577 143V128.04H322.207V143H285.577ZM273.257 99H291.077V176H273.257V99ZM348.006 148.94C349.546 151.727 351.27 154.147 353.176 156.2C355.156 158.253 357.283 159.83 359.556 160.93C361.903 162.03 364.36 162.58 366.926 162.58C369.64 162.58 371.876 161.92 373.636 160.6C375.396 159.207 376.276 157.337 376.276 154.99C376.276 153.01 375.763 151.433 374.736 150.26C373.71 149.013 372.06 147.84 369.786 146.74C367.513 145.64 364.506 144.393 360.766 143C358.933 142.34 356.806 141.423 354.386 140.25C352.04 139.077 349.803 137.573 347.676 135.74C345.55 133.833 343.79 131.56 342.396 128.92C341.003 126.207 340.306 122.943 340.306 119.13C340.306 114.583 341.48 110.66 343.826 107.36C346.246 104.06 349.473 101.567 353.506 99.88C357.613 98.12 362.16 97.24 367.146 97.24C372.28 97.24 376.716 98.0833 380.456 99.77C384.27 101.457 387.423 103.583 389.916 106.15C392.41 108.717 394.316 111.32 395.636 113.96L381.446 121.88C380.346 120.047 379.063 118.47 377.596 117.15C376.203 115.757 374.626 114.693 372.866 113.96C371.18 113.153 369.346 112.75 367.366 112.75C364.726 112.75 362.71 113.337 361.316 114.51C359.923 115.61 359.226 117.003 359.226 118.69C359.226 120.45 359.886 121.99 361.206 123.31C362.6 124.63 364.543 125.84 367.036 126.94C369.603 128.04 372.683 129.213 376.276 130.46C378.99 131.487 381.52 132.697 383.866 134.09C386.213 135.41 388.266 137.023 390.026 138.93C391.86 140.837 393.29 143.037 394.316 145.53C395.343 148.023 395.856 150.883 395.856 154.11C395.856 157.997 395.05 161.48 393.436 164.56C391.896 167.567 389.77 170.097 387.056 172.15C384.416 174.203 381.373 175.743 377.926 176.77C374.553 177.87 371.07 178.42 367.476 178.42C362.49 178.42 357.833 177.54 353.506 175.78C349.253 173.947 345.55 171.49 342.396 168.41C339.243 165.33 336.786 161.957 335.026 158.29L348.006 148.94Z" fill="#00CCFF"/>
<path d="M164.736 23.2H175.936V68H164.736V23.2ZM191.168 23.2H203.84L185.664 44.192L204.8 68H191.68L172.8 44.512L191.168 23.2ZM212.494 49.248V39.52H246.414V49.248H212.494ZM239.566 23.2H250.382V68H239.566V23.2ZM209.486 23.2H220.302V68H209.486V23.2ZM271.319 45.152L268.631 68H257.239L264.47 20.96L283.543 48.288L302.679 20.96L309.911 68H298.519L295.831 45.152L283.543 63.84L271.319 45.152ZM323.967 68V59.104H346.559V68H323.967ZM323.967 32.096V23.2H346.559V32.096H323.967ZM323.967 48.8V40.096H345.279V48.8H323.967ZM316.799 23.2H327.167V68H316.799V23.2ZM366.561 47.712H377.761L391.777 68H379.105L366.561 47.712ZM355.361 23.2H366.177V68H355.361V23.2ZM362.145 32.352V23.2H371.681C375.521 23.2 378.721 23.8187 381.281 25.056C383.841 26.2933 385.782 28.0213 387.105 30.24C388.428 32.416 389.089 34.9547 389.089 37.856C389.089 40.7147 388.428 43.2533 387.105 45.472C385.782 47.648 383.841 49.3547 381.281 50.592C378.721 51.8293 375.521 52.448 371.681 52.448H362.145V44.064H370.913C372.364 44.064 373.601 43.8507 374.625 43.424C375.692 42.9547 376.502 42.2933 377.057 41.44C377.612 40.544 377.889 39.4773 377.889 38.24C377.889 37.0027 377.612 35.9573 377.057 35.104C376.502 34.208 375.692 33.5253 374.625 33.056C373.601 32.5867 372.364 32.352 370.913 32.352H362.145Z" fill="#FF4466"/>
</svg>
