<svg width="150" height="150" viewBox="0 0 150 150" fill="none" xmlns="http://www.w3.org/2000/svg">
<path fill-rule="evenodd" clip-rule="evenodd" d="M75 18.75C63.6744 18.75 49.7648 20.3635 38.8614 21.9331C24.6441 23.9797 13.0685 34.481 10.0621 48.6768C8.37963 56.6209 6.73088 66.0137 6.35307 73.8775C6.08217 79.5156 5.48738 87.3943 4.85722 94.9518C4.2016 102.815 6.82175 110.915 11.6299 116.676C16.5364 122.554 24.3072 126.517 33.2728 124.008C39.0134 122.401 43.6005 118.367 47.0031 114.391C50.4813 110.328 53.2495 105.702 55.2209 101.939C56.7388 99.0418 59.4333 97.4093 61.9712 97.4093H88.0288C90.5663 97.4093 93.2613 99.0418 94.7788 101.939C96.7506 105.702 99.5187 110.328 102.997 114.391C106.399 118.367 110.986 122.401 116.727 124.008C125.692 126.517 133.463 122.554 138.37 116.676C143.178 110.915 145.798 102.815 145.143 94.9518C144.512 87.3943 143.917 79.5156 143.647 73.8775C143.269 66.0137 141.62 56.6209 139.938 48.6768C136.931 34.481 125.356 23.9797 111.138 21.9331C100.235 20.3635 86.3256 18.75 75 18.75Z" fill="#00CCFF"/>
<path d="M49.9999 53.125C49.9999 49.6732 47.2017 46.875 43.7499 46.875C40.2981 46.875 37.4999 49.6732 37.4999 53.125V56.25H34.3749C30.9231 56.25 28.1249 59.0482 28.1249 62.5C28.1249 65.9519 30.9231 68.75 34.3749 68.75H37.4999V71.875C37.4999 75.3269 40.2981 78.125 43.7499 78.125C47.2017 78.125 49.9999 75.3269 49.9999 71.875V68.75H53.1249C56.5767 68.75 59.3749 65.9519 59.3749 62.5C59.3749 59.0482 56.5767 56.25 53.1249 56.25H49.9999V53.125Z" fill="#FF4466"/>
<path d="M112.5 50C112.5 53.4518 109.702 56.25 106.25 56.25C102.798 56.25 100 53.4518 100 50C100 46.5482 102.798 43.75 106.25 43.75C109.702 43.75 112.5 46.5482 112.5 50Z" fill="#FF4466"/>
<path d="M106.25 81.25C109.702 81.25 112.5 78.4519 112.5 75C112.5 71.5481 109.702 68.75 106.25 68.75C102.798 68.75 100 71.5481 100 75C100 78.4519 102.798 81.25 106.25 81.25Z" fill="#FF4466"/>
<path d="M100 62.5C100 65.9519 97.2019 68.75 93.75 68.75C90.2981 68.75 87.5 65.9519 87.5 62.5C87.5 59.0482 90.2981 56.25 93.75 56.25C97.2019 56.25 100 59.0482 100 62.5Z" fill="#FF4466"/>
<path d="M118.75 68.75C122.202 68.75 125 65.9519 125 62.5C125 59.0482 122.202 56.25 118.75 56.25C115.298 56.25 112.5 59.0482 112.5 62.5C112.5 65.9519 115.298 68.75 118.75 68.75Z" fill="#FF4466"/>
</svg>
